<?xml version="1.0" encoding="UTF-8"?>
<!DOCTYPE svg PUBLIC "-//W3C//DTD SVG 1.1//EN" "http://www.w3.org/Graphics/SVG/1.1/DTD/svg11.dtd">
<svg version="1.1" xmlns="http://www.w3.org/2000/svg" xmlns:xlink="http://www.w3.org/1999/xlink" x="0" y="0" width="1009" height="496.667" viewBox="0, 0, 1009, 496.667">
  <g id="Layer_1">
    <g>
      <path d="M0,0 L1009,0 L1009,496.667 L0,496.667 L0,0 z" fill="#FFFFFF"/>
      <text transform="matrix(1, 0, 0, 1, 161.776, 322.273)">
        <tspan x="-51.336" y="-14" font-family="Avenir-Medium" font-size="36" fill="#656565">Active </tspan>
        <tspan x="-39.33" y="35" font-family="Avenir-Medium" font-size="36" fill="#656565">layer</tspan>
      </text>
      <text transform="matrix(1, 0, 0, 1, 179.442, 203.308)">
        <tspan x="-46.638" y="-14" font-family="Avenir-Medium" font-size="36" fill="#656565">Metal </tspan>
        <tspan x="-60.714" y="35" font-family="Avenir-Medium" font-size="36" fill="#656565">contact</tspan>
      </text>
      <text transform="matrix(1, 0, 0, 1, 842.109, 208.707)">
        <tspan x="-46.638" y="-14" font-family="Avenir-Medium" font-size="36" fill="#656565">Metal </tspan>
        <tspan x="-60.714" y="35" font-family="Avenir-Medium" font-size="36" fill="#656565">contact</tspan>
      </text>
      <text transform="matrix(1, 0, 0, 1, 510.942, 41.85)">
        <tspan x="-41.328" y="9.777" font-family="Avenir-Medium" font-size="36" fill="#656565">Light</tspan>
      </text>
      <path d="M289,252.833 L720,252.833 L720,323.49 L289,323.49 L289,252.833 z" fill="#D9D9D9"/>
      <path d="M289,323.505 L720,323.505 L720,468.49 L289,468.49 L289,323.505 z" fill="#AFAFAF"/>
      <g>
        <path d="M414.541,253.333 L289.5,253.333 L289.5,286.333 L388.494,286.333 C400.996,286.107 414.194,277.744 414.541,269.381 L414.541,253.333" fill="#B9DFDF"/>
        <path d="M414.541,253.333 L289.5,253.333 L289.5,286.333 L388.494,286.333 C400.996,286.107 414.194,277.744 414.541,269.381 L414.541,253.333" fill-opacity="0" stroke="#000000" stroke-width="1"/>
      </g>
      <g>
        <path d="M595.459,253.333 L720.5,253.333 L720.5,286.333 L621.506,286.333 C609.004,286.107 595.806,277.744 595.459,269.381 L595.459,253.333" fill="#B9DFDF"/>
        <path d="M595.459,253.333 L720.5,253.333 L720.5,286.333 L621.506,286.333 C609.004,286.107 595.806,277.744 595.459,269.381 L595.459,253.333" fill-opacity="0" stroke="#000000" stroke-width="1"/>
      </g>
      <text transform="matrix(1, 0, 0, 1, 329.442, 271.669)">
        <tspan x="-14.664" y="5.164" font-family="Avenir-Medium" font-size="24" fill="#656565">n+</tspan>
      </text>
      <text transform="matrix(1, 0, 0, 1, 674.616, 271.669)">
        <tspan x="-14.664" y="5.164" font-family="Avenir-Medium" font-size="24" fill="#656565">n+</tspan>
      </text>
      <text transform="matrix(1, 0, 0, 1, 494.442, 304.669)">
        <tspan x="-10.464" y="5.164" font-family="Avenir-Medium" font-size="24" fill="#656565">n-</tspan>
      </text>
      <text transform="matrix(1, 0, 0, 1, 510.942, 429.49)">
        <tspan x="-170.55" y="2.5" font-family="Avenir-Medium" font-size="30" fill="#656565">Semi-insulating substrate</tspan>
      </text>
      <path d="M289,243.833 L414.041,243.833 L414.041,252.833 L289,252.833 L289,243.833 z" fill="#000000"/>
      <path d="M594.959,243.833 L720,243.833 L720,252.833 L594.959,252.833 L594.959,243.833 z" fill="#000000"/>
      <g>
        <path d="M224.7,205.549 C266.625,209.805 302.422,208.37 322.826,227.67" fill-opacity="0" stroke="#A3A3A3" stroke-width="6"/>
        <path d="M322.826,227.67 L315.63,228.14 L330.118,237.201 L325.161,220.848 z" fill="#A3A3A3" fill-opacity="1" stroke="#A3A3A3" stroke-width="6" stroke-opacity="1"/>
      </g>
      <g>
        <path d="M775.526,205.549 C733.601,209.805 697.804,208.37 677.4,227.67" fill-opacity="0" stroke="#A3A3A3" stroke-width="6"/>
        <path d="M677.4,227.67 L675.066,220.848 L670.108,237.201 L684.596,228.14 z" fill="#A3A3A3" fill-opacity="1" stroke="#A3A3A3" stroke-width="6" stroke-opacity="1"/>
      </g>
      <g>
        <path d="M210.482,324.005 L409.557,306.141" fill-opacity="0" stroke="#A3A3A3" stroke-width="7"/>
        <path d="M409.557,306.141 L405.764,313.108 L422.704,304.961 L404.584,299.96 z" fill="#A3A3A3" fill-opacity="1" stroke="#A3A3A3" stroke-width="7" stroke-opacity="1"/>
      </g>
      <g>
        <path d="M467.543,68.574 C467.543,68.574 473.557,72.604 473.514,78.938 C473.557,85.271 467.543,89.302 467.543,89.302 C467.543,89.302 461.529,93.332 461.572,99.666 C461.529,105.999 467.543,110.03 467.543,110.03 C467.543,110.03 473.557,114.06 473.514,120.394 C473.557,126.727 467.543,130.758 467.543,130.758 C467.543,130.758 461.529,134.788 461.572,141.122 C461.529,147.456 467.543,151.486 467.543,151.486 C467.543,151.486 473.557,155.516 473.514,161.85 C473.557,168.184 467.543,172.214 467.543,172.214 C467.543,172.214 461.529,176.244 461.572,182.578 C461.529,188.912 467.543,192.942 467.543,192.942 C472.77,197.379 470.952,204.217 469.935,222.383" fill-opacity="0" stroke="#DE787A" stroke-width="3"/>
        <path d="M469.935,222.383 L465.854,219.412 L469.587,230.776 L474.247,219.759 z" fill="#DE787A" fill-opacity="1" stroke="#DE787A" stroke-width="3" stroke-opacity="1"/>
      </g>
      <g>
        <path d="M490.164,68.574 C490.164,68.574 496.178,72.604 496.135,78.938 C496.178,85.271 490.164,89.302 490.164,89.302 C490.164,89.302 484.15,93.332 484.193,99.666 C484.15,105.999 490.164,110.03 490.164,110.03 C490.164,110.03 496.178,114.06 496.135,120.394 C496.178,126.727 490.164,130.758 490.164,130.758 C490.164,130.758 484.15,134.788 484.193,141.122 C484.15,147.456 490.164,151.486 490.164,151.486 C490.164,151.486 496.178,155.516 496.135,161.85 C496.178,168.184 490.164,172.214 490.164,172.214 C490.164,172.214 484.15,176.244 484.193,182.578 C484.15,188.912 490.164,192.942 490.164,192.942 C495.391,197.379 493.573,204.217 492.556,222.383" fill-opacity="0" stroke="#DE787A" stroke-width="3"/>
        <path d="M492.556,222.383 L488.475,219.412 L492.208,230.776 L496.868,219.759 z" fill="#DE787A" fill-opacity="1" stroke="#DE787A" stroke-width="3" stroke-opacity="1"/>
      </g>
      <g>
        <path d="M515.79,68.574 C515.79,68.574 521.804,72.604 521.762,78.938 C521.804,85.271 515.79,89.302 515.79,89.302 C515.79,89.302 509.777,93.332 509.819,99.666 C509.777,105.999 515.79,110.03 515.79,110.03 C515.79,110.03 521.804,114.06 521.762,120.394 C521.804,126.727 515.79,130.758 515.79,130.758 C515.79,130.758 509.777,134.788 509.819,141.122 C509.777,147.456 515.79,151.486 515.79,151.486 C515.79,151.486 521.804,155.516 521.762,161.85 C521.804,168.184 515.79,172.214 515.79,172.214 C515.79,172.214 509.777,176.244 509.819,182.578 C509.777,188.912 515.79,192.942 515.79,192.942 C521.017,197.379 519.2,204.217 518.182,222.383" fill-opacity="0" stroke="#DE787A" stroke-width="3"/>
        <path d="M518.182,222.383 L514.102,219.412 L517.835,230.776 L522.494,219.759 z" fill="#DE787A" fill-opacity="1" stroke="#DE787A" stroke-width="3" stroke-opacity="1"/>
      </g>
      <g>
        <path d="M542.457,68.574 C542.457,68.574 548.471,72.604 548.428,78.938 C548.471,85.271 542.457,89.302 542.457,89.302 C542.457,89.302 536.443,93.332 536.486,99.666 C536.443,105.999 542.457,110.03 542.457,110.03 C542.457,110.03 548.471,114.06 548.428,120.394 C548.471,126.727 542.457,130.758 542.457,130.758 C542.457,130.758 536.443,134.788 536.486,141.122 C536.443,147.456 542.457,151.486 542.457,151.486 C542.457,151.486 548.471,155.516 548.428,161.85 C548.471,168.184 542.457,172.214 542.457,172.214 C542.457,172.214 536.443,176.244 536.486,182.578 C536.443,188.912 542.457,192.942 542.457,192.942 C547.684,197.379 545.866,204.217 544.849,222.383" fill-opacity="0" stroke="#DE787A" stroke-width="3"/>
        <path d="M544.849,222.383 L540.768,219.412 L544.501,230.776 L549.161,219.759 z" fill="#DE787A" fill-opacity="1" stroke="#DE787A" stroke-width="3" stroke-opacity="1"/>
      </g>
    </g>
  </g>
</svg>
